<?xml version="1.0" encoding="UTF-8" standalone="no" ?>
<!DOCTYPE svg PUBLIC "-//W3C//DTD SVG 1.1//EN" "http://www.w3.org/Graphics/SVG/1.1/DTD/svg11.dtd">
<svg xmlns="http://www.w3.org/2000/svg" xmlns:xlink="http://www.w3.org/1999/xlink" version="1.1" width="1080" height="1080" viewBox="0 0 1080 1080" xml:space="preserve">
<desc>Created with Fabric.js 5.2.4</desc>
<defs>
</defs>
<g transform="matrix(1 0 0 1 540 540)" id="304ea611-163c-4d22-923f-547d8bed05b6"  >
<rect style="stroke: none; stroke-width: 1; stroke-dasharray: none; stroke-linecap: butt; stroke-dashoffset: 0; stroke-linejoin: miter; stroke-miterlimit: 4; fill: rgb(255,255,255); fill-rule: nonzero; opacity: 1; visibility: hidden;" vector-effect="non-scaling-stroke"  x="-540" y="-540" rx="0" ry="0" width="1080" height="1080" />
</g>
<g transform="matrix(1 0 0 1 540 540)" id="52c2beae-7a75-47f7-ab5b-a257ac2bbd33"  >
</g>
<g transform="matrix(11.38 0 0 11.38 540 507.67)"  >
<g style="" vector-effect="non-scaling-stroke"   >
		<g transform="matrix(1 0 0 1 0.5 -6.21)"  >
<path style="stroke: none; stroke-width: 1; stroke-dasharray: none; stroke-linecap: butt; stroke-dashoffset: 0; stroke-linejoin: miter; stroke-miterlimit: 4; fill: rgb(42,85,229); fill-rule: nonzero; opacity: 1;" vector-effect="non-scaling-stroke"  transform=" translate(-113, -13.79)" d="M 82.7564 4.78263 L 83.0013 3.18827 C 83.043 2.93813 82.97 2.68796 82.8033 2.49515 C 82.6417 2.30234 82.402 2.19287 82.1467 2.19287 L 72.4645 2.19287 C 72.0372 2.19287 71.6777 2.50027 71.6099 2.92237 L 69.0096 19.3632 C 68.9731 19.6133 69.0409 19.8688 69.2076 20.0616 C 69.3692 20.2544 69.6089 20.369 69.859 20.369 L 72.0945 20.369 C 72.5219 20.369 72.8762 20.0616 72.9492 19.6395 L 73.9549 13.261 L 79.4943 13.261 C 79.9164 13.261 80.2759 12.9536 80.3437 12.5315 L 80.573 11.1402 C 80.6094 10.8901 80.5417 10.6348 80.3749 10.442 C 80.2082 10.244 79.9685 10.1344 79.7131 10.1344 L 74.4864 10.1344 L 75.1691 5.51747 L 81.8966 5.51747 C 82.3343 5.51226 82.6939 5.20993 82.7564 4.78263 Z M 133.507 10.27 L 133.439 10.2438 C 132.84 10.0614 132.142 9.96265 131.376 9.96265 C 130.13 9.96265 129.182 10.4679 128.562 11.4685 C 127.957 12.4534 127.644 13.5635 127.644 14.762 C 127.644 15.5176 127.775 16.1532 128.035 16.6482 C 128.306 17.1589 128.692 17.4248 129.182 17.4248 C 129.729 17.4248 130.359 17.0703 131.063 16.3772 C 131.751 15.6998 132.381 14.8871 132.923 13.9699 L 133.507 10.27 Z M 137.572 8.37847 L 135.795 19.655 C 135.727 20.0823 135.367 20.3848 134.94 20.3848 L 133.622 20.3848 C 133.387 20.3848 133.163 20.2908 133.001 20.1189 C 132.84 19.9521 132.751 19.7229 132.762 19.4884 L 132.814 18.0917 L 132.658 18.2637 C 132.652 18.2689 132.147 18.8317 131.563 19.2851 C 130.693 19.9625 129.729 20.3273 129.625 20.369 C 129.088 20.567 128.51 20.6659 127.905 20.6659 C 126.576 20.6659 125.586 20.1917 124.862 19.2225 C 124.143 18.2584 123.783 16.9767 123.783 15.4238 C 123.783 14.6161 123.866 13.8188 124.023 13.058 C 124.184 12.2972 124.466 11.5259 124.867 10.7598 C 125.268 9.99901 125.774 9.32153 126.368 8.75352 C 126.957 8.18551 127.738 7.72165 128.681 7.36729 C 129.625 7.01815 130.703 6.8411 131.876 6.8411 C 133.319 6.8411 135.003 7.02352 136.879 7.3935 C 137.342 7.4873 137.645 7.91468 137.572 8.37847 Z M 147.014 6.97138 C 146.128 7.17982 145.263 7.72177 144.69 8.14387 C 144.039 8.62328 143.106 9.63951 143.09 9.64993 L 142.934 9.82194 L 143.017 8.02911 C 143.028 7.79461 142.944 7.56012 142.777 7.38816 C 142.616 7.21619 142.387 7.12252 142.152 7.12252 L 140.823 7.12252 C 140.396 7.12252 140.036 7.42471 139.969 7.85202 L 138.15 19.384 C 138.114 19.6342 138.186 19.8843 138.348 20.0772 C 138.51 20.27 138.749 20.3794 139.005 20.3794 L 141.058 20.3794 C 141.485 20.3794 141.845 20.072 141.912 19.6499 L 142.871 13.5112 C 143.418 12.7399 144.127 12.0781 144.987 11.5361 C 145.628 11.1349 146.284 10.8744 146.941 10.7754 C 147.301 10.718 147.587 10.4421 147.655 10.0825 L 148.051 7.97186 C 148.108 7.68525 148.015 7.39343 147.801 7.1902 C 147.603 6.98697 147.301 6.90884 147.014 6.97138 Z M 105.815 12.7453 C 105.815 11.9845 105.68 11.3486 105.419 10.8588 C 105.148 10.3481 104.768 10.0876 104.278 10.0876 C 103.731 10.0876 103.095 10.4369 102.397 11.1351 C 101.704 11.8178 101.078 12.6253 100.531 13.5425 L 99.9477 17.2373 L 100.021 17.2581 C 100.62 17.4457 101.313 17.5393 102.084 17.5393 C 103.335 17.5393 104.283 17.034 104.898 16.0335 C 105.503 15.0538 105.815 13.949 105.815 12.7453 Z M 108.593 8.28966 C 109.307 9.25371 109.672 10.5358 109.672 12.0835 C 109.672 13.1048 109.531 14.1052 109.255 15.0536 C 108.978 16.002 108.541 16.9244 107.952 17.7999 C 107.368 18.6649 106.524 19.3736 105.44 19.8947 C 104.351 20.421 103.059 20.6922 101.605 20.6922 C 101.032 20.6922 100.307 20.6349 99.4526 20.5151 L 99.3641 20.5046 L 99.2077 22.0679 C 99.2025 22.0836 99.2025 22.099 99.2025 22.1199 L 98.7492 24.8661 C 98.6762 25.283 98.3218 25.5854 97.8997 25.5854 L 95.8622 25.5854 C 95.6069 25.5854 95.3724 25.4759 95.2108 25.2831 C 95.0441 25.0903 94.9711 24.84 95.0128 24.5847 L 97.6705 7.85202 C 97.7382 7.42992 98.0978 7.12761 98.5251 7.12761 L 99.8435 7.12761 C 100.078 7.12761 100.307 7.22141 100.469 7.38816 C 100.63 7.56012 100.719 7.78939 100.709 8.01868 L 100.656 9.4362 L 100.813 9.23824 C 100.828 9.22261 102.084 7.6957 104.007 7.09122 C 104.539 6.92447 105.049 6.8411 105.565 6.8411 C 106.873 6.84631 107.869 7.31519 108.593 8.28966 Z M 156.133 7.12252 L 154.528 7.12252 L 154.883 4.8297 C 154.919 4.57957 154.846 4.32419 154.685 4.13659 C 154.523 3.94378 154.278 3.83431 154.028 3.83431 L 152.407 3.83431 C 152.027 3.83431 151.688 4.08441 151.579 4.45439 L 150.792 7.12252 L 149.906 7.12252 C 149.479 7.12252 149.125 7.42483 149.057 7.84693 L 148.854 9.0871 C 148.817 9.33723 148.88 9.59249 149.052 9.7853 C 149.213 9.97811 149.453 10.0876 149.708 10.0876 L 150.245 10.0876 L 149.286 16.2261 C 149.218 16.6117 149.182 17.0131 149.182 17.4352 C 149.182 18.5243 149.468 19.3164 150.063 19.8583 C 150.646 20.3899 151.537 20.6659 152.72 20.6659 C 153.429 20.6659 154.429 20.369 154.549 20.3273 C 154.643 20.2908 154.82 20.2336 154.841 20.2232 C 154.878 20.2076 154.914 20.1918 154.945 20.1761 C 155.195 20.0406 155.357 19.7958 155.388 19.5197 L 155.539 18.2482 C 155.565 17.9824 155.472 17.7113 155.274 17.5289 C 155.216 17.4768 155.159 17.4301 155.091 17.3884 C 155.044 17.3676 155.003 17.3465 154.956 17.3309 C 154.924 17.3205 154.846 17.3048 154.539 17.31 C 154.466 17.31 154.388 17.3154 154.31 17.3154 C 154.169 17.3154 154.08 17.31 154.033 17.2996 C 153.913 17.2788 153.616 17.2163 153.465 17.0808 C 153.392 17.0183 153.168 16.8203 153.168 16.0907 C 153.168 16.0178 153.174 15.9084 153.194 15.7521 L 154.075 10.0929 L 155.894 10.0929 C 156.305 10.0929 156.665 9.80107 156.743 9.39981 L 156.983 8.15939 C 157.035 7.90404 156.967 7.64368 156.8 7.44566 C 156.639 7.23722 156.394 7.12252 156.133 7.12252 Z M 123.47 7.47162 C 123.309 7.25275 123.048 7.12252 122.777 7.12252 L 120.63 7.12252 C 120.25 7.12252 119.911 7.37795 119.802 7.73751 C 119.619 8.36284 119.276 9.08178 118.77 9.88428 C 118.067 11.0151 117.488 11.7135 116.998 12.0262 L 116.92 12.0626 C 116.748 12.1512 116.477 12.2813 115.529 12.4481 L 115.409 12.4689 L 116.894 3.18827 C 116.931 2.93813 116.863 2.68275 116.696 2.49515 C 116.535 2.30234 116.295 2.18753 116.045 2.18753 L 113.992 2.18753 C 113.564 2.18753 113.205 2.49518 113.137 2.91728 L 110.526 19.3894 C 110.484 19.6395 110.557 19.8897 110.719 20.0825 C 110.881 20.2753 111.125 20.3899 111.376 20.3899 L 113.429 20.3899 C 113.856 20.3899 114.216 20.0825 114.283 19.6604 L 114.956 15.3663 L 116.243 15.3663 L 118.014 19.8428 C 118.145 20.1763 118.463 20.3899 118.817 20.3899 L 121.047 20.3899 C 121.521 20.3899 121.912 20.0042 121.912 19.5247 C 121.912 19.4101 121.886 19.2904 121.839 19.181 L 119.812 13.9542 L 119.854 13.9178 C 120.693 13.1622 121.553 12.0886 122.413 10.739 C 122.97 9.86351 123.366 9.01929 123.601 8.24285 C 123.684 7.97187 123.632 7.69048 123.47 7.47162 Z M 93.7413 5.98641 C 94.5959 5.98641 95.2369 5.76754 95.6433 5.3246 C 96.055 4.87645 96.2583 4.3242 96.2583 3.62591 C 96.2583 3.08396 96.1071 2.67758 95.7997 2.40661 C 95.4974 2.13563 95.0285 2 94.4031 2 C 93.5485 2 92.9075 2.22409 92.5063 2.66182 C 92.0894 3.10997 91.8862 3.66756 91.8862 4.36584 C 91.8862 4.90779 92.0425 5.3143 92.3448 5.58006 C 92.6574 5.85625 93.1108 5.98641 93.7413 5.98641 Z M 94.4344 7.12252 L 92.4021 7.12252 C 91.9748 7.12252 91.6204 7.42483 91.5475 7.84693 L 89.7288 19.384 C 89.6923 19.6342 89.7601 19.8896 89.9268 20.0772 C 90.0884 20.27 90.3281 20.3794 90.5782 20.3794 L 92.6105 20.3794 C 93.0378 20.3794 93.3922 20.072 93.4651 19.6499 L 95.2838 8.11791 C 95.3203 7.86778 95.2525 7.6124 95.0858 7.4248 C 94.9242 7.2372 94.6897 7.12252 94.4344 7.12252 Z M 88.5563 2.49515 C 88.7179 2.68796 88.796 2.93813 88.7543 3.18827 L 86.7533 15.9554 C 86.7324 16.1742 86.7272 16.3095 86.7272 16.3981 C 86.7272 16.8254 86.8106 17.1225 86.9721 17.2737 C 87.1233 17.4144 87.4568 17.4925 87.5141 17.5029 C 87.6965 17.529 87.8684 17.6229 87.9987 17.7584 C 88.1707 17.9408 88.2593 18.1907 88.2384 18.4408 L 88.1238 19.5873 C 88.0977 19.8323 87.9935 20.0354 87.8424 20.1448 C 87.7017 20.2386 87.5297 20.3274 87.3109 20.4107 C 87.092 20.4941 86.4771 20.6713 86.0498 20.6713 C 84.9711 20.6713 84.1373 20.4211 83.5693 19.926 C 83.0065 19.4362 82.7199 18.7222 82.7199 17.7999 C 82.7199 17.5497 82.746 17.2738 82.7981 16.9767 C 82.8137 16.8517 84.9711 3.07883 84.9971 2.92771 C 85.0649 2.50562 85.4245 2.19796 85.8518 2.19796 L 87.9049 2.19796 C 88.1551 2.19275 88.3896 2.30234 88.5563 2.49515 Z" stroke-linecap="round" />
</g>
		<g transform="matrix(1 0 0 1 34.76 9.71)"  >
<linearGradient id="SVGID_paint0_linear_11912_12661_3" gradientUnits="userSpaceOnUse" gradientTransform="matrix(1 0 0 1 0 0)"  x1="144.463" y1="26.9664" x2="149.609" y2="32.094">
<stop offset="4.109999999999999%" style="stop-color:rgb(255,243,0);stop-opacity: 1"/>
<stop offset="27.27%" style="stop-color:rgb(255,243,0);stop-opacity: 1"/>
<stop offset="50.22%" style="stop-color:rgb(255,229,0);stop-opacity: 1"/>
<stop offset="81.26%" style="stop-color:rgb(242,169,48);stop-opacity: 1"/>
</linearGradient>
<path style="stroke: none; stroke-width: 1; stroke-dasharray: none; stroke-linecap: butt; stroke-dashoffset: 0; stroke-linejoin: miter; stroke-miterlimit: 4; fill: url(#SVGID_paint0_linear_11912_12661_3); fill-rule: nonzero; opacity: 1;" vector-effect="non-scaling-stroke"  transform=" translate(-147.26, -29.71)" d="M 147.678 29.5242 C 147.678 29.5242 148.967 30.1648 149.603 30.4367 C 150.221 30.7007 150.291 31.6903 149.611 32.0245 C 148.93 32.3588 148.742 32.4131 148.742 32.4131 C 148.742 32.4131 148.849 32.1359 148.835 31.868 C 148.791 31.3905 147.385 31.0031 146.453 30.7737 C 146.453 30.7737 145.738 28.5214 145.414 27.894 C 145.089 27.2626 144.43 27 144.43 27 L 145.988 27.0212 C 145.988 27.0212 146.524 26.9946 146.762 27.5716 C 146.999 28.1513 147.678 29.5242 147.678 29.5242 Z" stroke-linecap="round" />
</g>
		<g transform="matrix(1 0 0 1 34.9 14.04)"  >
<linearGradient id="SVGID_paint1_linear_11912_12661_4" gradientUnits="userSpaceOnUse" gradientTransform="matrix(1 0 0 1 0 0)"  x1="145.01" y1="36.3995" x2="150.165" y2="31.2631">
<stop offset="18.740000000000002%" style="stop-color:rgb(242,169,48);stop-opacity: 1"/>
<stop offset="49.78%" style="stop-color:rgb(255,229,0);stop-opacity: 1"/>
<stop offset="72.72999999999999%" style="stop-color:rgb(255,243,0);stop-opacity: 1"/>
<stop offset="95.89%" style="stop-color:rgb(255,243,0);stop-opacity: 1"/>
</linearGradient>
<path style="stroke: none; stroke-width: 1; stroke-dasharray: none; stroke-linecap: butt; stroke-dashoffset: 0; stroke-linejoin: miter; stroke-miterlimit: 4; fill: url(#SVGID_paint1_linear_11912_12661_4); fill-rule: nonzero; opacity: 1;" vector-effect="non-scaling-stroke"  transform=" translate(-147.41, -34.04)" d="M 147.588 34.4583 C 147.588 34.4583 146.956 35.737 146.678 36.3909 C 146.414 37.0117 145.409 37.082 145.076 36.3989 C 144.743 35.7157 144.709 35.595 144.709 35.595 C 144.709 35.595 144.91 35.6348 145.23 35.6202 C 145.706 35.5765 146.114 34.1651 146.343 33.23 C 146.343 33.23 148.585 32.5111 149.212 32.1874 C 149.841 31.8611 150.101 31.1992 150.101 31.1992 L 150.08 32.9966 C 150.08 32.9966 150.107 33.303 149.532 33.5417 C 148.955 33.7778 147.588 34.4583 147.588 34.4583 Z" stroke-linecap="round" />
</g>
		<g transform="matrix(1 0 0 1 30.53 14.19)"  >
<linearGradient id="SVGID_paint2_linear_11912_12661_5" gradientUnits="userSpaceOnUse" gradientTransform="matrix(1 0 0 1 0 0)"  x1="140.703" y1="31.7914" x2="145.84" y2="36.9099">
<stop offset="18.740000000000002%" style="stop-color:rgb(242,169,48);stop-opacity: 1"/>
<stop offset="49.78%" style="stop-color:rgb(255,229,0);stop-opacity: 1"/>
<stop offset="72.72999999999999%" style="stop-color:rgb(255,243,0);stop-opacity: 1"/>
<stop offset="95.89%" style="stop-color:rgb(255,243,0);stop-opacity: 1"/>
</linearGradient>
<path style="stroke: none; stroke-width: 1; stroke-dasharray: none; stroke-linecap: butt; stroke-dashoffset: 0; stroke-linejoin: miter; stroke-miterlimit: 4; fill: url(#SVGID_paint2_linear_11912_12661_5); fill-rule: nonzero; opacity: 1;" vector-effect="non-scaling-stroke"  transform=" translate(-143.03, -34.19)" d="M 142.628 34.3683 C 142.628 34.3683 141.346 33.7315 140.703 33.4556 C 140.084 33.1917 140.014 32.2009 140.695 31.8679 C 141.375 31.5337 141.649 31.4727 141.649 31.4727 C 141.649 31.4727 141.472 31.7565 141.515 32.0762 C 141.56 32.555 142.922 32.8892 143.851 33.1187 C 143.851 33.1187 144.593 35.3577 144.89 35.9984 C 145.252 36.7783 145.852 36.8978 145.852 36.8978 L 144.085 36.8712 C 144.085 36.8712 143.779 36.8977 143.541 36.3207 C 143.306 35.7411 142.628 34.3683 142.628 34.3683 Z" stroke-linecap="round" />
</g>
		<g transform="matrix(1 0 0 1 30.4 9.83)"  >
<linearGradient id="SVGID_paint3_linear_11912_12661_6" gradientUnits="userSpaceOnUse" gradientTransform="matrix(1 0 0 1 0 0)"  x1="140.179" y1="32.6384" x2="145.322" y2="27.5143">
<stop offset="4.109999999999999%" style="stop-color:rgb(255,243,0);stop-opacity: 1"/>
<stop offset="27.27%" style="stop-color:rgb(255,243,0);stop-opacity: 1"/>
<stop offset="50.22%" style="stop-color:rgb(255,229,0);stop-opacity: 1"/>
<stop offset="81.26%" style="stop-color:rgb(242,169,48);stop-opacity: 1"/>
</linearGradient>
<path style="stroke: none; stroke-width: 1; stroke-dasharray: none; stroke-linecap: butt; stroke-dashoffset: 0; stroke-linejoin: miter; stroke-miterlimit: 4; fill: url(#SVGID_paint3_linear_11912_12661_6); fill-rule: nonzero; opacity: 1;" vector-effect="non-scaling-stroke"  transform=" translate(-142.9, -29.83)" d="M 142.734 29.4255 C 142.734 29.4255 143.368 28.1402 143.643 27.4929 C 143.906 26.8721 144.892 26.8031 145.225 27.4849 C 145.558 28.168 145.59 28.2914 145.59 28.2914 C 145.59 28.2914 145.339 28.2953 145.073 28.3099 C 144.596 28.355 144.208 29.7213 143.98 30.6551 C 143.98 30.6551 141.744 31.3886 141.111 31.6976 C 140.24 32.1221 140.207 32.666 140.207 32.666 L 140.243 30.8898 C 140.243 30.8898 140.216 30.5835 140.791 30.3447 C 141.366 30.1059 142.734 29.4255 142.734 29.4255 Z" stroke-linecap="round" />
</g>
		<g transform="matrix(1 0 0 1 -40.91 11.56)"  >
<path style="stroke: none; stroke-width: 1; stroke-dasharray: none; stroke-linecap: butt; stroke-dashoffset: 0; stroke-linejoin: miter; stroke-miterlimit: 4; fill: rgb(158,158,158); fill-rule: nonzero; opacity: 1;" vector-effect="non-scaling-stroke"  transform=" translate(-71.59, -31.56)" d="M 73.8872 35.6454 L 68 35.6454 L 69.2929 27.4841 L 75.1801 27.4841 L 74.9377 29.0656 L 70.9205 29.0656 L 70.655 30.774 L 74.1297 30.774 L 73.8872 32.2862 L 70.4126 32.2862 L 70.1356 34.0639 L 74.1412 34.0639 L 73.8872 35.6454 Z" stroke-linecap="round" />
</g>
		<g transform="matrix(1 0 0 1 -34.35 12.6)"  >
<path style="stroke: none; stroke-width: 1; stroke-dasharray: none; stroke-linecap: butt; stroke-dashoffset: 0; stroke-linejoin: miter; stroke-miterlimit: 4; fill: rgb(158,158,158); fill-rule: nonzero; opacity: 1;" vector-effect="non-scaling-stroke"  transform=" translate(-78.15, -32.6)" d="M 80.7741 35.6454 L 78.7424 35.6454 L 77.9112 33.9254 L 76.4567 35.6454 L 74.5405 35.6454 L 77.1263 32.6094 L 75.5794 29.5619 L 77.6227 29.5619 L 78.4307 31.3512 L 79.9083 29.5619 L 81.7668 29.5619 L 79.181 32.5748 L 80.7741 35.6454 Z" stroke-linecap="round" />
</g>
		<g transform="matrix(1 0 0 1 -27.92 13.72)"  >
<path style="stroke: none; stroke-width: 1; stroke-dasharray: none; stroke-linecap: butt; stroke-dashoffset: 0; stroke-linejoin: miter; stroke-miterlimit: 4; fill: rgb(158,158,158); fill-rule: nonzero; opacity: 1;" vector-effect="non-scaling-stroke"  transform=" translate(-84.58, -33.72)" d="M 86.0739 29.4349 C 86.6819 29.4349 87.1513 29.6581 87.4822 30.1045 C 87.8131 30.5508 87.9786 31.1319 87.9786 31.8476 C 87.9786 32.317 87.9132 32.7711 87.7824 33.2097 C 87.6592 33.6407 87.463 34.0562 87.1936 34.4564 C 86.9243 34.8566 86.5395 35.1798 86.0393 35.4261 C 85.539 35.6647 84.9542 35.7839 84.2846 35.7839 C 84.023 35.7839 83.6959 35.757 83.3034 35.7031 L 83.2342 36.3842 L 82.9687 38.0003 L 81.1794 38.0003 L 82.5185 29.5619 L 83.9268 29.5619 L 83.8806 30.8548 C 84.4501 29.9082 85.1812 29.4349 86.0739 29.4349 Z M 85.4967 30.9818 C 85.2582 30.9818 84.9811 31.1357 84.6656 31.4435 C 84.3577 31.7514 84.0807 32.1131 83.8344 32.5286 L 83.5805 34.1563 C 83.8498 34.2409 84.1577 34.2833 84.504 34.2833 C 85.0581 34.2833 85.4698 34.0639 85.7391 33.6253 C 86.0162 33.1789 86.1547 32.6864 86.1547 32.1477 C 86.1547 31.8091 86.097 31.532 85.9816 31.3166 C 85.8661 31.0934 85.7045 30.9818 85.4967 30.9818 Z" stroke-linecap="round" />
</g>
		<g transform="matrix(1 0 0 1 -22.27 11.49)"  >
<path style="stroke: none; stroke-width: 1; stroke-dasharray: none; stroke-linecap: butt; stroke-dashoffset: 0; stroke-linejoin: miter; stroke-miterlimit: 4; fill: rgb(158,158,158); fill-rule: nonzero; opacity: 1;" vector-effect="non-scaling-stroke"  transform=" translate(-90.23, -31.49)" d="M 91.7202 34.1563 L 91.5817 35.5184 C 91.1584 35.6877 90.7236 35.7724 90.2773 35.7724 C 89.7771 35.7724 89.3923 35.657 89.1229 35.4261 C 88.8613 35.1952 88.7304 34.8643 88.7304 34.4333 C 88.7304 34.3179 88.742 34.1909 88.7651 34.0524 L 89.8386 27.207 L 91.6394 27.207 L 90.6351 33.6022 C 90.6274 33.6945 90.6236 33.76 90.6236 33.7984 C 90.6236 33.9831 90.6544 34.1063 90.7159 34.1678 C 90.7852 34.2294 90.9199 34.2602 91.12 34.2602 C 91.2816 34.2602 91.4817 34.2255 91.7202 34.1563 Z" stroke-linecap="round" />
</g>
		<g transform="matrix(1 0 0 1 -16.85 12.6)"  >
<path style="stroke: none; stroke-width: 1; stroke-dasharray: none; stroke-linecap: butt; stroke-dashoffset: 0; stroke-linejoin: miter; stroke-miterlimit: 4; fill: rgb(158,158,158); fill-rule: nonzero; opacity: 1;" vector-effect="non-scaling-stroke"  transform=" translate(-95.65, -32.6)" d="M 95.1317 35.7608 C 94.3006 35.7455 93.6541 35.5223 93.1924 35.0913 C 92.7306 34.6604 92.4998 34.0562 92.4998 33.279 C 92.4998 32.14 92.823 31.2165 93.4694 30.5085 C 94.1236 29.7928 94.9932 29.4349 96.0783 29.4349 C 96.9402 29.4349 97.6059 29.6504 98.0753 30.0814 C 98.5525 30.5047 98.791 31.1126 98.791 31.9053 C 98.791 33.0827 98.4678 34.0216 97.8214 34.7219 C 97.1749 35.4145 96.2784 35.7608 95.1317 35.7608 Z M 95.3279 34.2602 C 95.8359 34.2602 96.2399 34.0716 96.54 33.6945 C 96.8402 33.3098 96.9902 32.7864 96.9902 32.1246 C 96.9902 31.3243 96.6478 30.9241 95.9628 30.9241 C 95.4626 30.9241 95.0586 31.1126 94.7508 31.4897 C 94.4429 31.8668 94.289 32.394 94.289 33.0712 C 94.289 33.4791 94.3737 33.7792 94.543 33.9716 C 94.72 34.1563 94.9816 34.2525 95.3279 34.2602 Z" stroke-linecap="round" />
</g>
		<g transform="matrix(1 0 0 1 -10.78 12.54)"  >
<path style="stroke: none; stroke-width: 1; stroke-dasharray: none; stroke-linecap: butt; stroke-dashoffset: 0; stroke-linejoin: miter; stroke-miterlimit: 4; fill: rgb(158,158,158); fill-rule: nonzero; opacity: 1;" vector-effect="non-scaling-stroke"  transform=" translate(-101.72, -32.54)" d="M 99.345 35.6454 L 100.303 29.5619 L 101.723 29.5619 L 101.654 31.028 C 102.277 29.966 103.054 29.4349 103.986 29.4349 L 104.089 29.4349 L 103.743 31.2704 C 103.351 31.2704 102.962 31.3935 102.577 31.6398 C 102.192 31.8783 101.877 32.1708 101.631 32.5171 L 101.146 35.6454 L 99.345 35.6454 Z" stroke-linecap="round" />
</g>
		<g transform="matrix(1 0 0 1 -5.39 12.62)"  >
<path style="stroke: none; stroke-width: 1; stroke-dasharray: none; stroke-linecap: butt; stroke-dashoffset: 0; stroke-linejoin: miter; stroke-miterlimit: 4; fill: rgb(158,158,158); fill-rule: nonzero; opacity: 1;" vector-effect="non-scaling-stroke"  transform=" translate(-107.11, -32.62)" d="M 110.056 31.2704 C 109.994 32.6864 108.936 33.3944 106.881 33.3944 C 106.589 33.3944 106.304 33.3829 106.027 33.3598 C 106.065 33.7138 106.189 33.9677 106.396 34.1217 C 106.612 34.2756 106.977 34.3525 107.493 34.3525 C 108.101 34.3525 108.728 34.2409 109.375 34.0178 L 109.098 35.4838 C 108.451 35.6839 107.758 35.7839 107.02 35.7839 C 105.988 35.7839 105.253 35.5646 104.815 35.126 C 104.384 34.6873 104.168 34.0524 104.168 33.2213 C 104.168 32.1592 104.484 31.2665 105.115 30.5431 C 105.754 29.8197 106.612 29.458 107.689 29.458 C 108.497 29.458 109.094 29.6235 109.478 29.9544 C 109.863 30.2776 110.056 30.7163 110.056 31.2704 Z M 106.119 32.2285 C 106.196 32.2439 106.319 32.2516 106.489 32.2516 C 107.666 32.2516 108.255 31.9784 108.255 31.432 C 108.255 31.255 108.197 31.1126 108.082 31.0049 C 107.966 30.8894 107.793 30.8317 107.562 30.8317 C 107.193 30.8317 106.885 30.9549 106.639 31.2011 C 106.4 31.4474 106.227 31.7898 106.119 32.2285 Z" stroke-linecap="round" />
</g>
		<g transform="matrix(1 0 0 1 4.46 11.56)"  >
<path style="stroke: none; stroke-width: 1; stroke-dasharray: none; stroke-linecap: butt; stroke-dashoffset: 0; stroke-linejoin: miter; stroke-miterlimit: 4; fill: rgb(255,194,0); fill-rule: nonzero; opacity: 1;" vector-effect="non-scaling-stroke"  transform=" translate(-116.96, -31.56)" d="M 115.123 35.6454 L 113.242 35.6454 L 114.535 27.4841 L 117.882 27.4841 C 118.906 27.4841 119.625 27.6726 120.041 28.0497 C 120.464 28.4268 120.676 28.9578 120.676 29.6427 C 120.676 29.989 120.645 30.3123 120.584 30.6124 C 120.522 30.9048 120.407 31.205 120.237 31.5128 C 120.076 31.8129 119.86 32.0707 119.591 32.2862 C 119.329 32.494 118.979 32.6672 118.54 32.8057 C 118.102 32.9365 117.594 33.0019 117.017 33.0019 L 115.551 33.0019 L 115.123 35.6454 Z M 115.781 31.5128 L 117.086 31.5128 C 118.179 31.5128 118.725 30.9933 118.725 29.9544 C 118.725 29.6312 118.633 29.3888 118.448 29.2272 C 118.263 29.0579 117.944 28.9732 117.49 28.9732 L 116.185 28.9732 L 115.781 31.5128 Z" stroke-linecap="round" />
</g>
		<g transform="matrix(1 0 0 1 9.91 11.49)"  >
<path style="stroke: none; stroke-width: 1; stroke-dasharray: none; stroke-linecap: butt; stroke-dashoffset: 0; stroke-linejoin: miter; stroke-miterlimit: 4; fill: rgb(255,194,0); fill-rule: nonzero; opacity: 1;" vector-effect="non-scaling-stroke"  transform=" translate(-122.41, -31.49)" d="M 123.907 34.1563 L 123.769 35.5184 C 123.345 35.6877 122.91 35.7724 122.464 35.7724 C 121.964 35.7724 121.579 35.657 121.31 35.4261 C 121.048 35.1952 120.917 34.8643 120.917 34.4333 C 120.917 34.3179 120.929 34.1909 120.952 34.0524 L 122.025 27.207 L 123.826 27.207 L 122.822 33.6022 C 122.814 33.6945 122.81 33.76 122.81 33.7984 C 122.81 33.9831 122.841 34.1063 122.903 34.1678 C 122.972 34.2294 123.107 34.2602 123.307 34.2602 C 123.468 34.2602 123.668 34.2255 123.907 34.1563 Z" stroke-linecap="round" />
</g>
		<g transform="matrix(1 0 0 1 15.4 12.67)"  >
<path style="stroke: none; stroke-width: 1; stroke-dasharray: none; stroke-linecap: butt; stroke-dashoffset: 0; stroke-linejoin: miter; stroke-miterlimit: 4; fill: rgb(255,194,0); fill-rule: nonzero; opacity: 1;" vector-effect="non-scaling-stroke"  transform=" translate(-127.9, -32.67)" d="M 131.104 29.5619 L 130.134 35.6454 L 128.726 35.6454 L 128.772 34.3525 C 128.133 35.2991 127.314 35.7724 126.313 35.7724 C 125.775 35.7724 125.371 35.6223 125.101 35.3222 C 124.832 35.0221 124.697 34.6219 124.697 34.1217 C 124.697 33.9139 124.713 33.7292 124.743 33.5676 L 125.39 29.5619 L 127.179 29.5619 L 126.614 33.1174 C 126.59 33.2328 126.579 33.3559 126.579 33.4868 C 126.579 33.9408 126.741 34.1678 127.064 34.1678 C 127.318 34.1678 127.602 34.0255 127.918 33.7407 C 128.234 33.456 128.53 33.0981 128.807 32.6672 L 129.303 29.5619 L 131.104 29.5619 Z" stroke-linecap="round" />
</g>
		<g transform="matrix(1 0 0 1 21.65 12.6)"  >
<path style="stroke: none; stroke-width: 1; stroke-dasharray: none; stroke-linecap: butt; stroke-dashoffset: 0; stroke-linejoin: miter; stroke-miterlimit: 4; fill: rgb(255,194,0); fill-rule: nonzero; opacity: 1;" vector-effect="non-scaling-stroke"  transform=" translate(-134.15, -32.6)" d="M 131.36 35.4723 L 131.672 33.9716 C 131.726 34.0332 131.968 34.1101 132.399 34.2025 C 132.83 34.2871 133.234 34.3294 133.611 34.3294 C 134.389 34.3294 134.777 34.137 134.777 33.7523 C 134.777 33.6137 134.677 33.5021 134.477 33.4175 C 134.285 33.3328 134.046 33.2636 133.761 33.2097 C 133.484 33.1481 133.203 33.0712 132.919 32.9788 C 132.642 32.8788 132.403 32.7133 132.203 32.4825 C 132.011 32.2439 131.914 31.9438 131.914 31.5821 C 131.914 30.8894 132.165 30.3584 132.665 29.989 C 133.165 29.6196 133.919 29.4349 134.927 29.4349 C 135.258 29.4349 135.581 29.458 135.897 29.5042 C 136.212 29.5427 136.451 29.585 136.613 29.6312 C 136.782 29.6774 136.89 29.7158 136.936 29.7466 L 136.636 31.2011 C 136.505 31.1165 136.266 31.0434 135.92 30.9818 C 135.574 30.9202 135.239 30.8894 134.916 30.8894 C 134.115 30.8894 133.715 31.0741 133.715 31.4435 C 133.715 31.5744 133.811 31.6783 134.004 31.7552 C 134.204 31.8322 134.442 31.9014 134.719 31.963 C 134.997 32.0169 135.274 32.0938 135.551 32.1939 C 135.835 32.2862 136.074 32.4517 136.266 32.6902 C 136.466 32.9211 136.566 33.2174 136.566 33.5791 C 136.566 34.3256 136.297 34.8758 135.758 35.2298 C 135.227 35.5838 134.496 35.7608 133.565 35.7608 C 133.211 35.7608 132.853 35.7378 132.492 35.6916 C 132.13 35.6454 131.857 35.6031 131.672 35.5646 C 131.495 35.5184 131.391 35.4876 131.36 35.4723 Z" stroke-linecap="round" />
</g>
</g>
</g>
</svg>